<svg xmlns:xlink="http://www.w3.org/1999/xlink" xmlns="http://www.w3.org/2000/svg" width="311" height="89" viewBox="0 0 311 89" fill="none"><path d="M40.39 50.4601C45.18 36.0001 56.05 30.0001 70.65 28.4701C70.24 30.5401 70.02 32.4701 69.48 34.2501C67.48 40.8901 63.34 45.5301 56.64 47.7001C54.4563 48.3209 52.4246 49.3868 50.6727 50.8307C48.9208 52.2745 47.4865 54.0652 46.46 56.0901C45.4754 58.0535 44.9749 60.2239 45 62.4201V64.3001H42.06C41.4255 59.9157 42.5507 55.4582 45.19 51.9001C47.7678 48.3958 51.4141 45.8234 55.58 44.5701C61.42 42.7401 64.83 38.6301 66.44 32.8601C66.4491 32.7269 66.4491 32.5933 66.44 32.4601C58.8757 33.5198 51.9974 37.4165 47.2 43.3601C42.2486 49.1867 39.8072 56.7376 40.41 64.3601H36.21C36.81 53.8201 32.78 45.3601 24.77 38.7101C20.6007 35.3518 15.5944 33.1944 10.29 32.4701C10.45 33.0901 10.55 33.6001 10.73 34.0901C12.51 39.1801 15.73 42.7801 21.01 44.4701C23.9031 45.3067 26.562 46.8047 28.7765 48.8457C30.9911 50.8867 32.7006 53.4147 33.77 56.2301C34.6505 58.8337 34.9642 61.5954 34.69 64.3301H31.82C31.7808 62.8273 31.6539 61.3281 31.44 59.8401C30.27 54.1201 26.79 50.2901 21.44 48.1801C18.9287 47.3752 16.5448 46.2169 14.36 44.7401C10.2412 41.5447 7.5035 36.8924 6.70999 31.7401C6.55999 30.9201 6.46999 30.0801 6.35999 29.2501C6.35999 29.0701 6.35999 28.8901 6.35999 28.5301C12.99 28.9658 19.4021 31.0711 25 34.6501C30.78 38.4801 34 44.1401 36.38 50.4501C36.38 50.1701 36.38 49.9001 36.38 49.6201C36.38 45.8701 36.33 42.1201 36.38 38.3601C36.3951 38.0224 36.3284 37.6861 36.1856 37.3797C36.0428 37.0732 35.8282 36.8058 35.56 36.6001C31.1801 32.9874 28.3234 27.8561 27.56 22.2301C27.0901 19.1173 27.3135 15.9391 28.2141 12.9227C29.1148 9.90616 30.6704 7.12578 32.77 4.78011C34.3385 3.17447 36.0086 1.67137 37.77 0.28011C37.8566 0.191515 37.96 0.121121 38.0742 0.0730612C38.1884 0.0250011 38.3111 0.000244141 38.435 0.000244141C38.5589 0.000244141 38.6815 0.0250011 38.7957 0.0730612C38.9099 0.121121 39.0134 0.191515 39.1 0.28011C46.37 5.44011 50.1 12.4201 49.33 21.3801C48.8 27.7001 45.69 32.8301 40.89 36.9401C40.5891 37.1924 40.3959 37.5501 40.35 37.9401C40.35 41.9401 40.35 46.0401 40.35 50.1001C40.3403 50.2099 40.3403 50.3203 40.35 50.4301L40.39 50.4601ZM36.26 32.6401V5.87011C32.7394 9.43551 30.7652 14.2444 30.7652 19.2551C30.7652 24.2658 32.7394 29.0747 36.26 32.6401ZM40.36 32.9101C49.26 23.2601 46.36 11.3001 40.36 5.91011V32.9101Z" fill="#214332"></path><path d="M20.51 68.34H56.19C56.2293 68.5817 56.256 68.8254 56.27 69.07C56.27 72.07 56.44 75.07 56.19 77.98C56.0747 80.1502 55.3755 82.2491 54.1663 84.0549C52.9571 85.8608 51.2828 87.3067 49.32 88.24C48.6318 88.5337 47.8879 88.6736 47.14 88.65C41.29 88.65 35.44 88.65 29.59 88.65C28.2011 88.6305 26.8592 88.1444 25.78 87.27C24.1659 86.1601 22.8439 84.6767 21.9263 82.9461C21.0088 81.2154 20.5229 79.2887 20.51 77.33C20.51 74.33 20.51 71.4 20.51 68.33V68.34ZM23.94 71.67C23.94 73.6 23.94 75.46 23.94 77.31C23.9352 78.5801 24.2063 79.8362 24.7346 80.9913C25.263 82.1464 26.0359 83.173 27 84C27.4702 84.461 28.029 84.8218 28.6426 85.0607C29.2562 85.2997 29.9119 85.4117 30.57 85.39C35.88 85.39 41.19 85.39 46.51 85.39C47.475 85.4216 48.418 85.0977 49.16 84.48C50.3002 83.642 51.2267 82.547 51.8643 81.2838C52.502 80.0206 52.8328 78.6249 52.83 77.21C52.83 75.71 52.83 74.21 52.83 72.71C52.83 72.39 52.83 72.07 52.77 71.71H23.94V71.67Z" fill="#214332"></path><path d="M49.91 64.13C51.37 63.5 52.79 62.74 54.3 62.26C56.92 61.44 59.58 60.72 62.3 60.08C64.5987 59.5931 66.7379 58.5355 68.5204 57.0046C70.303 55.4737 71.6715 53.5188 72.5 51.32C72.57 51.16 72.61 50.99 72.73 50.63C71.5 50.79 70.38 50.91 69.28 51.08C64.0016 51.7836 58.9754 53.7679 54.64 56.86C52.2984 58.5559 50.3252 60.7094 48.84 63.19C48.6242 63.6784 48.2279 64.0645 47.7341 64.2676C47.2403 64.4708 46.687 64.4752 46.19 64.28C46.6167 62.0117 47.5424 59.8666 48.9 58C52 53.89 56.29 51.45 61 49.74C65.8741 48.021 70.9926 47.0958 76.16 47C76.33 47 76.51 47 76.91 47.06C76.64 48.34 76.47 49.58 76.12 50.76C73.91 58.06 68.82 62.11 61.51 63.65C57.6856 64.3308 53.7857 64.4823 49.92 64.1L49.91 64.13Z" fill="#214332"></path><path d="M30.45 64.3C29.9714 64.4749 29.4441 64.4605 28.9758 64.2597C28.5075 64.059 28.1334 63.6871 27.93 63.22C24.82 57.87 20 54.69 14.27 52.7C11.0126 51.5675 7.61321 50.8944 4.17 50.7C4.47 51.43 4.68 52.07 4.99 52.65C5.97338 54.635 7.41156 56.3597 9.18749 57.6839C10.9634 59.008 13.0269 59.8941 15.21 60.27C19.0956 61.0144 22.8584 62.2968 26.39 64.08C26.49 64.08 26.58 64.21 26.82 64.37C22.69 64.37 18.73 64.5 14.82 63.57C11.7845 62.9247 8.93785 61.5904 6.5 59.67C2.54 56.44 0.62 52.15 0 47C1.76 47.1 3.43 47.12 5.09 47.31C10.3091 47.8169 15.3921 49.2707 20.09 51.6C22.3498 52.7437 24.4206 54.2277 26.23 56C28.3135 58.0954 29.7625 60.7369 30.41 63.62C30.4389 63.735 30.4589 63.852 30.47 63.97C30.4787 64.0732 30.4787 64.1768 30.47 64.28L30.45 64.3Z" fill="#214332"></path><path d="M101 14.5665C101 13.8651 101.327 13.5144 101.98 13.5144H107.278C107.931 13.5144 108.258 13.8651 108.258 14.5665V49.7082C108.258 50.3862 107.931 50.7369 107.278 50.7369H101.98C101.327 50.7369 101 50.3862 101 49.7082V14.5665Z" fill="#111111"></path><path d="M123.38 24.3632V49.7082C123.38 50.3862 123.03 50.7369 122.306 50.7369H117.312C116.659 50.7369 116.355 50.3862 116.355 49.7082V14.4964C116.355 14.2626 116.425 14.0288 116.589 13.8184C116.752 13.6079 116.986 13.5144 117.312 13.5144H123.146C123.73 13.5144 124.22 13.8184 124.64 14.4496L141.419 38.649V14.4964C141.419 14.2158 141.512 13.982 141.676 13.795C141.839 13.6079 142.096 13.5144 142.446 13.5144H147.416C147.65 13.5144 147.907 13.6079 148.14 13.795C148.373 13.982 148.49 14.2158 148.49 14.5198V49.7315C148.49 50.4096 148.14 50.7603 147.416 50.7603H142.119C141.839 50.7603 141.582 50.6901 141.349 50.5499C141.116 50.4096 140.882 50.1758 140.649 49.8484L123.403 24.3866L123.38 24.3632Z" fill="#111111"></path><path d="M156.354 14.5198C156.354 13.8652 156.681 13.5378 157.335 13.5378H169.796C171.383 13.5378 172.947 13.7483 174.464 14.1925C176.004 14.6368 177.474 15.2447 178.851 16.0396C180.251 16.8346 181.535 17.7932 182.701 18.9155C183.868 20.0378 184.918 21.277 185.782 22.6564C186.645 24.0359 187.322 25.5089 187.835 27.1222C188.325 28.7355 188.582 30.3955 188.582 32.1725C188.582 34.6743 188.092 37.0357 187.135 39.2569C186.179 41.4781 184.848 43.4187 183.191 45.1022C181.535 46.7622 179.551 48.1183 177.311 49.1237C175.047 50.1291 172.62 50.6902 170.006 50.7604H157.335C156.681 50.7604 156.354 50.433 156.354 49.7784V14.5666V14.5198ZM180.321 27.4963C179.714 26.0701 178.851 24.8075 177.777 23.732C176.704 22.6564 175.42 21.8147 173.95 21.2068C172.48 20.5989 170.87 20.2716 169.166 20.2716H163.682V43.9565H169.166C170.893 43.9565 172.48 43.6525 173.95 43.0213C175.42 42.39 176.704 41.5483 177.777 40.4961C178.851 39.4206 179.691 38.1814 180.321 36.7318C180.928 35.3055 181.254 33.7624 181.254 32.1257C181.254 30.4891 180.951 28.9225 180.321 27.4963Z" fill="#111111"></path><path d="M195.21 24.6671C196.213 22.3524 197.567 20.3182 199.317 18.5881C201.067 16.8579 203.074 15.4784 205.408 14.4964C207.718 13.491 210.215 13 212.852 13C215.489 13 217.963 13.491 220.297 14.4964C222.63 15.5018 224.637 16.8579 226.364 18.5881C228.091 20.3182 229.444 22.3524 230.425 24.6671C231.405 26.9818 231.918 29.4836 231.918 32.1256C231.918 34.7677 231.428 37.2461 230.425 39.5842C229.444 41.8989 228.068 43.933 226.364 45.6632C224.637 47.3934 222.63 48.7495 220.297 49.7549C217.963 50.7603 215.489 51.2513 212.852 51.2513C210.215 51.2513 207.741 50.7603 205.408 49.7549C203.097 48.7495 201.067 47.3934 199.317 45.6632C197.567 43.933 196.213 41.9223 195.21 39.5842C194.206 37.2695 193.716 34.7677 193.716 32.1256C193.716 29.4836 194.206 27.0052 195.21 24.6671ZM201.954 36.8486C202.561 38.3216 203.378 39.6076 204.451 40.6831C205.525 41.7586 206.761 42.6237 208.185 43.255C209.608 43.8863 211.172 44.1902 212.852 44.1902C214.532 44.1902 216.096 43.8863 217.519 43.255C218.943 42.6237 220.203 41.782 221.253 40.6831C222.303 39.5842 223.12 38.3216 223.704 36.8486C224.287 35.3756 224.59 33.8091 224.59 32.1023C224.59 30.3954 224.287 28.8289 223.704 27.3559C223.12 25.8829 222.28 24.597 221.253 23.4981C220.203 22.3991 218.966 21.5341 217.519 20.9028C216.096 20.2715 214.532 19.9675 212.852 19.9675C211.172 19.9675 209.608 20.2715 208.185 20.9028C206.761 21.5341 205.501 22.3991 204.451 23.4981C203.401 24.597 202.561 25.8829 201.954 27.3559C201.347 28.8289 201.044 30.3954 201.044 32.1023C201.044 33.8091 201.347 35.3756 201.954 36.8486Z" fill="#111111"></path><path d="M238.499 24.6671C239.503 22.3524 240.856 20.3182 242.606 18.5881C244.333 16.8579 246.364 15.4784 248.697 14.4964C251.008 13.491 253.505 13 256.142 13C258.779 13 261.252 13.491 263.586 14.4964C265.896 15.5018 267.927 16.8579 269.653 18.5881C271.38 20.3182 272.734 22.3524 273.714 24.6671C274.694 26.9818 275.208 29.4836 275.208 32.1256C275.208 34.7677 274.718 37.2461 273.714 39.5842C272.734 41.8989 271.357 43.933 269.653 45.6632C267.927 47.3934 265.92 48.7495 263.586 49.7549C261.276 50.7603 258.779 51.2513 256.142 51.2513C253.505 51.2513 251.031 50.7603 248.697 49.7549C246.387 48.7495 244.357 47.3934 242.606 45.6632C240.879 43.933 239.503 41.9223 238.499 39.5842C237.496 37.2695 237.006 34.7677 237.006 32.1256C237.006 29.4836 237.496 27.0052 238.499 24.6671ZM245.22 36.8486C245.827 38.3216 246.644 39.6076 247.717 40.6831C248.791 41.7586 250.027 42.6237 251.451 43.255C252.874 43.8863 254.438 44.1902 256.118 44.1902C257.799 44.1902 259.362 43.8863 260.786 43.255C262.209 42.6237 263.469 41.782 264.519 40.6831C265.57 39.5842 266.386 38.3216 266.993 36.8486C267.6 35.3756 267.88 33.8091 267.88 32.1023C267.88 30.3954 267.577 28.8289 266.993 27.3559C266.41 25.8829 265.57 24.597 264.519 23.4981C263.469 22.3991 262.232 21.5341 260.786 20.9028C259.339 20.2715 257.799 19.9675 256.118 19.9675C254.438 19.9675 252.874 20.2715 251.451 20.9028C250.027 21.5341 248.767 22.3991 247.717 23.4981C246.667 24.597 245.827 25.8829 245.22 27.3559C244.613 28.8289 244.31 30.3954 244.31 32.1023C244.31 33.8091 244.613 35.3756 245.22 36.8486Z" fill="#111111"></path><path d="M281.812 14.5198C281.812 14.2626 281.882 14.0288 282.022 13.8184C282.162 13.6079 282.419 13.5144 282.769 13.5144H298.661C300.388 13.5144 301.951 13.8651 303.398 14.5432C304.845 15.2212 306.082 16.1331 307.132 17.2554C308.182 18.3776 308.976 19.687 309.559 21.16C310.142 22.633 310.422 24.1528 310.422 25.7427C310.422 26.7948 310.259 27.8236 309.956 28.829C309.652 29.8343 309.209 30.7929 308.649 31.6814C308.089 32.5699 307.412 33.3882 306.642 34.1598C305.872 34.9314 305.008 35.5627 304.075 36.1238L310.912 49.6614C311.029 49.8952 311.029 50.1524 310.912 50.3862C310.796 50.62 310.562 50.7369 310.259 50.7369H303.795C303.515 50.7369 303.305 50.6668 303.141 50.5499C302.978 50.433 302.815 50.1992 302.628 49.8484L296.677 37.854H289.069V49.7315C289.069 50.3862 288.743 50.7135 288.089 50.7135H282.745C282.115 50.7135 281.788 50.3862 281.788 49.7315V14.5198H281.812ZM289.093 19.7338V31.4476H296.887C297.751 31.4476 298.567 31.2839 299.314 30.98C300.061 30.676 300.714 30.2552 301.251 29.7174C301.788 29.1797 302.208 28.5717 302.511 27.8469C302.815 27.1455 302.978 26.3739 302.978 25.579C302.978 24.784 302.838 24.0125 302.511 23.311C302.208 22.5862 301.788 21.9783 301.251 21.4406C300.714 20.9028 300.061 20.4819 299.314 20.178C298.567 19.874 297.751 19.7104 296.887 19.7104H289.093V19.7338Z" fill="#111111"></path><path d="M149.587 70.2834V76.3157H147.417V60.1594H152.177C153.204 60.1594 154.091 60.2763 154.838 60.5101C155.584 60.744 156.214 61.0713 156.704 61.5155C157.195 61.9598 157.568 62.4741 157.801 63.082C158.035 63.69 158.175 64.3914 158.175 65.1396C158.175 65.8878 158.035 66.5892 157.778 67.1971C157.521 67.8284 157.125 68.3662 156.634 68.8104C156.144 69.2546 155.491 69.6053 154.744 69.8625C153.997 70.1197 153.134 70.2366 152.177 70.2366H149.587V70.2834ZM149.587 68.5298H152.177C152.807 68.5298 153.344 68.4597 153.834 68.2726C154.324 68.0856 154.721 67.8752 155.024 67.5712C155.351 67.2673 155.584 66.9165 155.748 66.4957C155.911 66.0748 156.004 65.6306 156.004 65.1396C156.004 64.1108 155.678 63.3159 155.048 62.7313C154.417 62.1468 153.461 61.8662 152.177 61.8662H149.587V68.5064V68.5298Z" fill="#111111"></path><path d="M174.604 74.4686H181.581V76.3157H172.433V60.1594H174.627V74.4686H174.604Z" fill="#111111"></path><path d="M208.722 76.3157H207.041C206.855 76.3157 206.691 76.2689 206.575 76.1754C206.458 76.0819 206.365 75.965 206.295 75.8013L204.778 71.8967H197.543L196.026 75.8013C195.98 75.9416 195.886 76.0585 195.746 76.152C195.63 76.2455 195.466 76.3157 195.28 76.3157H193.599L200.04 60.1594H202.257L208.698 76.3157H208.722ZM198.15 70.3302H204.171L201.651 63.7601C201.487 63.3626 201.324 62.8482 201.161 62.2403C201.067 62.5443 200.997 62.8249 200.927 63.082C200.857 63.3392 200.764 63.573 200.694 63.7601L198.173 70.3302H198.15Z" fill="#111111"></path><path d="M223.797 60.2296C223.797 60.2296 224.007 60.3699 224.124 60.5336L233.458 72.7151C233.458 72.528 233.412 72.341 233.412 72.1539C233.412 71.9669 233.412 71.7798 233.412 71.6162V60.1829H235.325V76.3391H234.228C234.065 76.3391 233.902 76.3157 233.785 76.2456C233.668 76.1755 233.552 76.0819 233.435 75.9416L224.1 63.7835C224.1 63.9706 224.124 64.1576 224.124 64.3447C224.124 64.5317 224.124 64.6954 224.124 64.8357V76.3391H222.21V60.1829H223.33C223.517 60.1829 223.68 60.2062 223.774 60.253L223.797 60.2296Z" fill="#111111"></path><path d="M261.696 60.1594V62.0065H256.492V76.3157H254.298V62.0065H249.071V60.1594H261.696Z" fill="#111111"></path></svg>